<svg xmlns="http://www.w3.org/2000/svg" viewBox="0 0 50 58.7"><path d="M25 58.4C11.4 58.4.2 47.3.2 33.6.2 22 8.4 11.9 19.7 9.4h.1l5.2-9 5.2 9h.1C41.6 11.9 49.8 22 49.8 33.6c0 13.7-11.2 24.8-24.8 24.8z" fill="#e5e5e5"/><path d="M25 1l4.9 8.5.1.2h.2c11.2 2.4 19.3 12.5 19.3 23.9 0 13.5-11 24.5-24.5 24.5S.5 47.2.5 33.7c0-11.4 8.1-21.5 19.3-23.9h.2l.1-.2L25 1m0-1l-5.3 9.2C8.4 11.7 0 21.7 0 33.7c0 13.8 11.2 25 25 25s25-11.2 25-25c0-12-8.4-22-19.7-24.4L25 0z"/><path d="M14.5 36.7c.5.3 1.2.5 1.9.5 1.1 0 1.7-.6 1.7-1.4 0-.8-.4-1.2-1.5-1.6-1.3-.5-2.1-1.2-2.1-2.3 0-1.3 1-2.2 2.6-2.2.8 0 1.4.2 1.8.4l-.4.9c-.3-.1-.8-.4-1.5-.4-1.1 0-1.5.7-1.5 1.2 0 .8.5 1.1 1.6 1.6 1.4.5 2.1 1.2 2.1 2.4s-.9 2.3-2.8 2.3c-.8 0-1.6-.2-2.1-.5l.2-.9zm6-6.7c.5-.1 1.2-.2 2-.2 1 0 1.8.2 2.3.7.4.4.7 1 .7 1.7s-.2 1.3-.6 1.7c-.6.6-1.5.9-2.5.9-.3 0-.6 0-.8-.1V38h-1v-8zm1.1 3.9c.2.1.5.1.9.1 1.3 0 2-.6 2-1.7s-.8-1.6-1.9-1.6c-.5 0-.8 0-1 .1v3.1zm6.4-4V38h-1v-8.1h1zm1.8 8.1v-8.1h1.1l2.6 4.1c.6.9 1.1 1.8 1.5 2.6-.1-1.1-.1-2.1-.1-3.3v-3.4h1V38h-1.1l-2.6-4.1c-.6-.9-1.1-1.8-1.5-2.7.1 1 .1 2 .1 3.3V38h-1z" fill="#444545"/></svg>