<svg xmlns="http://www.w3.org/2000/svg" viewBox="0 0 200 200"><style>.st0{display:none}.st10,.st8,.st9{fill-rule:evenodd;clip-rule:evenodd}.st8{fill:#af2c24}.st9{fill:#d23d27}.st10{fill:#eeb733}.st12{fill:#e5a324}.st12,.st13,.st14,.st15,.st16,.st17{fill-rule:evenodd;clip-rule:evenodd}.st13{fill:#951a1d}.st14{fill:#c77b29}.st15{fill:#f1ce40}.st16{fill:#f6f4eb}.st17{fill:#4bc3f1}.st18{display:inline;fill:#fff;stroke:#000;stroke-width:.25;stroke-miterlimit:10}.st19{fill:#428bb5}.st19,.st20,.st24,.st25{fill-rule:evenodd;clip-rule:evenodd}.st20{fill:#59a3ce}.st24{fill:#f04a32}.st25{fill:#bfd966}.st28{fill:#8cc544}.st29{fill:#006838}.st30{fill:#e6e6e7}.st31{fill:#e2a63f}.st32{fill:#754d2a}.st33{fill:#d0d2d3}.st34{fill:#f7f8f8}.st35{fill:#e8b02c}.st36{fill:#f9cb36}.st37{fill:#c3872b}.st38{fill:#fff}.st39{fill:#d81f2a}</style><g id="Слой_1"><path fill="none" stroke="#000" stroke-width=".25" stroke-miterlimit="10" d="M170.7 29.3L29.3 170.7"/><path d="M62.1 191.4c-22.8-9.1-43.4-28.7-53.6-53.5L100 100l-37.9 91.4z" fill="#bfd964" stroke="#000" stroke-width=".25" stroke-miterlimit="10"/><path d="M137.9 191.4c-22.5 9.7-51 10.4-75.7.1L100 100l37.9 91.4zM8.6 137.9c-9.7-22.5-10.4-51-.1-75.7L100 100 8.6 137.9zM62.1 8.6c22.5-9.7 51-10.4 75.7-.1L100 100 62.1 8.6zm129.3 53.5c9.7 22.5 10.4 51 .1 75.7L100 100l91.4-37.9z" fill="#eaeaea" stroke="#000" stroke-width=".25" stroke-miterlimit="10"/><path d="M8.6 62.2c9.1-22.8 28.7-43.4 53.5-53.6L100 100 8.6 62.2z" fill="#ed6056" stroke="#000" stroke-width=".25" stroke-miterlimit="10"/><path d="M137.9 8.6c22.8 9.1 43.4 28.7 53.6 53.5L100 100l37.9-91.4z" fill="#47c3f1" stroke="#000" stroke-width=".25" stroke-miterlimit="10"/><path d="M191.4 137.8c-9.1 22.8-28.7 43.4-53.5 53.6L100 100l91.4 37.8z" fill="#f89d52" stroke="#000" stroke-width=".25" stroke-miterlimit="10"/><path d="M100 1c19.3 0 38.2 5.6 54.4 16.3 16.6 10.9 29.5 26.4 37.1 44.9 10.1 24.4 10.1 51.3 0 75.8s-29.1 43.5-53.6 53.6c-12.1 5-24.8 7.6-37.8 7.6-19.3 0-38.2-5.6-54.4-16.3-16.7-11.1-29.5-26.6-37.2-45-10.1-24.4-10.1-51.3 0-75.8S37.7 18.7 62.1 8.5C74.2 3.5 87 1 100 1m0-1C87.2 0 74.2 2.4 61.7 7.6c-51 21.1-75.3 79.6-54.1 130.7 16 38.5 53.2 61.8 92.4 61.8 12.8 0 25.7-2.5 38.2-7.6 51-21.1 75.3-79.6 54.1-130.7C176.4 23.2 139.2 0 100 0z"/><path class="st8" d="M158.6 52.4l-7.9 5.7-7.1 9.2 10.8-2.3 11.4-11.6z"/><path class="st9" d="M158.6 52.4l-14.5-15.5-14.9 15 14.4 15.4z"/><path class="st10" d="M135 58.1l2.8 3 12-11.9-1.4-1.4-1.5-1.7z"/><path class="st9" d="M140.2 39.5l15.6 16.6 3.3-3.3-5.3-8.1-10.2-8.6z"/><path class="st10" d="M146.5 46.2l3 3.2 4.3-4.3-3.2-3.1z"/><path class="st8" d="M155.8 56.1l7.9.6 3.1-3.2-4.4-.4-3.3-.3z"/><path fill-rule="evenodd" clip-rule="evenodd" fill="#e64732" d="M166.8 53.6l-12.9-14-10.3-3.5 15.5 16.7z"/><path class="st8" d="M149.5 49.4l-.6.7 5.1 5.6.6.6.7-.7-.4-.5z"/><path class="st12" d="M148.9 50.1l.6-.7-2.8-3-.7.6z"/><path class="st8" d="M146 47l.7-.6-.2-.2-5.6-6-.7.6z"/><path class="st12" d="M161.8 53l-3.3 3.3 2.8.2 3.1-3.2z"/><path class="st12" d="M158 56.3l-10.2 10.1 3.7-.7 9.2-9.2-2.2-.2z"/><path class="st13" d="M160.7 56.5l-.9.9 1.9.2 1-1-1.4-.1z"/><path class="st14" d="M159.8 57.4l.9-.9-2.2-.2h-.5l-.8.8z"/><path class="st13" d="M157.2 57.1l.8-.8-2.2-.2-.5-.5-.7.7.7.6z"/><path class="st15" d="M164.3 53.2l-5.3-5.9 2.6.6-2.6-2.8-2.1-.6-5.1-5.6-3.4-1.2 5.4 6-1.6-.3-.3-.1-2.1-.5 3 3.3 2.3.5 1.1.3 5.4 5.9.2.2 2.6.3z"/><path class="st16" d="M156.1 50.7c-.3-.2-.7-.2-.9 0-.2.2-.2.6 0 .9.3.2.7.2.9 0 .2-.3.2-.7 0-.9zm-2.7-2.9c-.3-.2-.7-.2-.9 0-.2.2-.2.6 0 .9.3.2.7.2.9 0 .3-.3.3-.7 0-.9zm-5.1-5.3c-.3-.2-.7-.2-.9 0-.2.2-.2.6 0 .9.3.2.7.2.9 0 .3-.3.3-.7 0-.9zm-2.6-3c-.3-.2-.7-.2-.9 0-.2.2-.2.6 0 .9.3.2.7.2.9 0 .2-.3.2-.7 0-.9zM165 54.2c-.3-.2-.8.3-.5.5.5.2 1-.3.5-.5zm-11.7-3.6c-.3-.2-.7-.2-.9 0-.2.2-.2.6 0 .9.3.2.7.2.9 0 .3-.3.3-.7 0-.9zm2.8 3c-.3-.2-.7-.2-.9 0-.2.2-.2.6 0 .9.3.2.7.2.9 0 .3-.3.2-.7 0-.9zm-10.4-11.2c-.3-.2-.7-.2-.9 0-.2.2-.2.6 0 .9.3.2.7.2.9 0 .2-.3.2-.7 0-.9zm-2.7-3.1c-.3-.2-.7-.2-.9 0-.2.2-.2.6 0 .9.3.2.7.2.9 0 .2-.3.2-.7 0-.9zm9.4 15.1c-.3-.2-.7-.2-.9 0-.2.2-.2.6 0 .9.3.2.7.2.9 0 .2-.3.2-.7 0-.9zm-2.7-2.8c-.3-.2-.7-.2-.9 0-.2.2-.2.6 0 .9.3.2.7.2.9 0 .2-.3.2-.7 0-.9zm-5.1-5.4c-.3-.2-.7-.2-.9 0-.2.2-.2.6 0 .9.3.2.7.2.9 0 .3-.3.3-.7 0-.9zm-2.5-2.7c-.3-.2-.7-.2-.9 0-.2.2-.2.6 0 .9.3.2.7.2.9 0 .2-.3.2-.7 0-.9zm16.3 11.7c-.4-.2-.9.3-.6.6.5.2 1.1-.3.6-.6zm-16.8-8.8c-.3-.2-.7-.2-.9 0-.2.2-.2.6 0 .9.3.2.7.2.9 0 .2-.2.2-.6 0-.9zm7.7 8.3c-.3-.2-.7-.2-.9 0-.2.2-.2.6 0 .9.3.2.7.2.9 0 .3-.3.3-.7 0-.9zm2.5 2.5c-.3-.2-.7-.2-.9 0-.2.2-.2.6 0 .9.3.2.7.2.9 0 .3-.3.3-.7 0-.9zm-12.6-13.6c-.3-.2-.7-.2-.9 0-.2.2-.2.6 0 .9.3.2.7.2.9 0 .3-.3.3-.7 0-.9zm21.2 14.6c-.1-.1-.3-.1-.4 0-.1.1-.1.2 0 .3.1.1.3.1.4 0 .1-.1.1-.2 0-.3zm3.3-2.7c-.3-.2-.8.3-.5.5.4.3.9-.2.5-.5zm-4-1.6c-.4-.2-.9.3-.6.6.5.3 1-.3.6-.6zm-5.9 5c-.2-.1-.5 0-.6.2-.2.2-.2.4 0 .5.2.1.5 0 .6-.2.2-.2.2-.4 0-.5zm1.5-1.5c-.2-.1-.5 0-.6.2-.2.2-.2.4 0 .5.2.1.5 0 .6-.2.2-.2.2-.4 0-.5zm3.5 2.3c-.1-.1-.3-.1-.4 0-.1.1-.1.2 0 .3.1.1.3.1.4 0 .2-.1.2-.3 0-.3zm-10.1-2c-.3-.2-.7-.2-.9 0-.2.2-.2.6 0 .9.3.2.7.2.9 0 .2-.3.2-.7 0-.9zm-2.3-2.8c-.3-.2-.7-.2-.9 0-.2.2-.2.6 0 .9.3.2.7.2.9 0 .3-.3.2-.7 0-.9zm-4.8-5.7c-.3-.2-.7-.2-.9 0-.2.2-.2.6 0 .9.3.2.7.2.9 0 .2-.2.2-.6 0-.9zm-2.6-2.7c-.3-.2-.7-.2-.9 0-.2.2-.2.6 0 .9.3.2.7.2.9 0 .3-.2.3-.6 0-.9zm-.4 2.9c-.3-.2-.7-.2-.9 0s-.2.6 0 .9c.3.2.7.2.9 0s.2-.6 0-.9zm-3 3.1c-.3-.2-.7-.2-.9 0-.2.2-.2.6 0 .9.3.2.7.2.9 0 .2-.3.2-.7 0-.9zm10.7 5.2c-.3-.2-.7-.2-.9 0-.2.2-.2.6 0 .9.3.2.7.2.9 0 .3-.3.3-.7 0-.9zm-3 3c-.3-.2-.7-.2-.9 0-.2.2-.2.6 0 .9.3.2.7.2.9 0 .3-.3.3-.7 0-.9zm5.5-.5c-.3-.2-.7-.2-.9 0-.2.2-.2.6 0 .9.3.2.7.2.9 0 .3-.3.3-.7 0-.9zm-3 3c-.3-.2-.7-.2-.9 0-.2.2-.2.6 0 .9.3.2.7.2.9 0 .2-.3.2-.7 0-.9zm-9.6-16.6c-.3-.2-.7-.2-.9 0-.2.2-.2.6 0 .9s.7.2.9 0 .3-.7 0-.9zm-3 3c-.3-.2-.7-.2-.9 0-.2.2-.2.6 0 .9.3.2.7.2.9 0 .3-.3.3-.7 0-.9zm12.4 11.1c-.3-.2-.7-.2-.9 0-.2.2-.2.6 0 .9.3.2.7.2.9 0 .3-.3.3-.7 0-.9zm-3 3c-.3-.2-.7-.2-.9 0s-.2.6 0 .9c.3.2.7.2.9 0 .3-.3.3-.7 0-.9zm.8-5.8c-.3-.2-.7-.2-.9 0-.2.2-.2.6 0 .9.3.2.7.2.9 0 .2-.3.2-.7 0-.9zm-3 3c-.3-.2-.7-.2-.9 0-.2.2-.2.6 0 .9s.7.2.9 0c.2-.3.2-.7 0-.9zm-1.8-8.7c-.3-.2-.7-.2-.9 0s-.2.6 0 .9c.3.2.7.2.9 0s.2-.6 0-.9zm-3.1 3.1c-.3-.2-.7-.2-.9 0-.2.2-.2.6 0 .9.3.2.7.2.9 0 .3-.3.3-.7 0-.9zm.5-5.7c-.3-.2-.7-.2-.9 0-.2.2-.2.6 0 .9.3.2.7.2.9 0 .3-.3.3-.7 0-.9zm-3 3c-.3-.2-.7-.2-.9 0-.2.2-.2.6 0 .9.3.2.7.2.9 0 .2-.3.2-.7 0-.9zm19.2 7.9c-.2-.1-.5 0-.6.2-.2.2-.2.4 0 .5.2.1.5 0 .6-.2.1-.1.2-.4 0-.5zm-1.7 1.7c-.2-.1-.5 0-.6.2-.2.2-.2.4 0 .5.2.1.5 0 .6-.2.2-.2.2-.4 0-.5zm-1.6 1.6c-.2-.1-.5 0-.6.2-.2.2-.2.4 0 .5.2.1.5 0 .6-.2.1-.1.2-.4 0-.5zm-1.7 1.7c-.2-.1-.5 0-.6.2-.2.2-.2.4 0 .5.2.1.5 0 .6-.2.2-.2.2-.4 0-.5zm10.3-4.5c-.1-.1-.3-.1-.4 0-.1.1-.1.2 0 .3.1.1.3.1.4 0 .2-.1.1-.3 0-.3zm-1.4 1.4c-.1-.1-.3-.1-.4 0-.1.1-.1.2 0 .3.1.1.3.1.4 0 .2-.1.1-.2 0-.3zm-1.4 1.5c-.1-.1-.3-.1-.4 0-.1.1-.1.2 0 .3.1.1.3.1.4 0 .1-.1.1-.2 0-.3z"/><path class="st15" d="M165.8 49.4s-3.5-4.4-8.6-4.2c-.7 0-1.6-.2-2.4.1l.5-1.5c3.2-1.4 7.2-.9 10.2 1.6.6 1.3.5 2.2.3 4z"/><path class="st12" d="M165.8 49.4s-5.2 3.1-11-4.2c.7-.2 1.4-.3 2.1-.4 5.2-.2 8.9 4.6 8.9 4.6z"/><path class="st17" d="M163.2 47c-1.5.6-4.3-.6-5.6-2.1 2.2 0 4.2 1 5.6 2.1z"/><path class="st14" d="M165.2 49.6c-.9-1-1.8-1.8-2.6-2.5.2 0 .4-.1.6-.1 1.6 1.2 2.6 2.4 2.6 2.4s-.2.1-.6.2zm-7.7-4.3c-.9 0-1.7.1-2.5.3l-.3-.3c.7-.2 1.4-.3 2.1-.4h.7l.3.3.2.2c-.1-.1-.3-.1-.5-.1z"/><path class="st15" d="M158.2 56.8c1.5-6.1-3.2-11.3-3.2-11.3.5-.2 1.6-.2 1.8-.2 2.8 1.8 4.9 6.2 4.7 9.9-1 .7-2 1.1-3.3 1.6zm-7.6-22.6s4.4 3.5 4.2 8.6c0 .7.2 1.6-.1 2.4l1.5-.5c1.4-3.2.9-7.2-1.6-10.2-1.3-.6-2.2-.5-4-.3z"/><path class="st12" d="M150.6 34.2s-3.1 5.2 4.2 11c.2-.7.3-1.4.4-2.1.2-5.2-4.6-8.9-4.6-8.9z"/><path class="st17" d="M153 36.8c-.6 1.5.6 4.3 2.1 5.6 0-2.2-1-4.2-2.1-5.6z"/><path class="st14" d="M150.4 34.7c1 .9 1.8 1.8 2.5 2.6 0-.2.1-.4.1-.6-1.2-1.6-2.4-2.6-2.4-2.6l-.2.6zm4.3 7.8c0 .9-.1 1.7-.3 2.5l.3.3c.2-.7.3-1.4.4-2.1v-.7l-.3-.3-.2-.2c.1.1.1.3.1.5z"/><path class="st15" d="M143.2 41.8c6.1-1.5 11.3 3.2 11.3 3.2.2-.5.2-1.6.2-1.8-1.8-2.8-6.2-4.9-9.9-4.7-.7 1-1.1 2-1.6 3.3z"/><g class="st0"><path class="st18" d="M166.4 146.5c-.9.9-1.9 1.4-3 1.4s-2.1-.4-3-1.3c-1.1-1.1-1.6-2.3-1.5-3.5.1-1.3.7-2.5 2-3.7 1.1-1.1 2.1-1.8 3.1-2.1l1.8 1.8c-.5.2-1.1.4-1.7.8s-1.1.7-1.5 1.1c-1.3 1.3-1.4 2.4-.3 3.4 1 1 2.1.8 3.4-.5.2-.2.5-.5.7-.8.2-.3.4-.6.5-.8l1.3-.4 4.6 5.3-5.3 5.3-1.7-1.7 3.5-3.5-1.7-2.1-.2.3-1 1zm-12.3 9.6c-1.7-1.7-2.7-3.2-2.9-4.6-.3-1.4.2-2.6 1.3-3.8 1.1-1.1 2.4-1.5 3.8-1.3 1.4.3 2.9 1.2 4.6 2.9 1.7 1.7 2.7 3.3 3 4.6.3 1.4-.2 2.6-1.3 3.8-1.1 1.1-2.4 1.5-3.8 1.3-1.6-.3-3.1-1.2-4.7-2.9zm4.7-4.7c-1.2-1.2-2.1-1.9-2.9-2.2-.7-.3-1.3-.2-1.8.3s-.6 1.1-.3 1.8 1.1 1.7 2.2 2.9c1.2 1.2 2.2 1.9 2.9 2.2s1.3.2 1.8-.3.6-1.1.3-1.8-1-1.7-2.2-2.9zm-8.3 12.2c-1-1-1.6-2-1.7-2.9-.1-.9.2-1.7 1-2.5.7-.7 1.6-1 2.5-.9.9.1 1.9.7 2.9 1.7 2 2 2.3 3.8.7 5.3-.7.7-1.6 1.1-2.5.9-1-.1-1.9-.6-2.9-1.6zm2.9-3c-.6-.6-1-.9-1.4-1.1-.4-.2-.7-.2-.9.1-.4.4-.1 1.2 1 2.3 1.1 1.1 1.9 1.4 2.3 1 .2-.2.2-.5.1-.9-.1-.3-.5-.8-1.1-1.4zm-4.6 10.5l-4.3-15.1 1.6-1.6 4.3 15.1-1.6 1.6zm-9-4.6c-1-1-1.6-2-1.7-2.9s.2-1.7 1-2.5c.7-.7 1.6-1 2.5-.9.9.1 1.9.7 2.9 1.7 2 2 2.3 3.8.7 5.3-.7.7-1.6 1.1-2.5.9-.9-.1-1.9-.6-2.9-1.6zm3-2.9c-.6-.6-1-.9-1.4-1.1-.4-.2-.7-.2-.9.1-.4.4-.1 1.2 1 2.3 1.1 1.1 1.9 1.4 2.3 1 .2-.2.2-.5.1-.9-.2-.4-.6-.9-1.1-1.4zm0-28.8c-1.6-1.6-2.4-3.2-2.5-4.9-.1-1.7.6-3.2 2.1-4.7s3.1-2.2 4.7-2.1c1.7.1 3.3.9 4.9 2.5 1.6 1.6 2.4 3.2 2.5 4.9.1 1.6-.7 3.2-2.2 4.7s-3.1 2.2-4.7 2.1c-1.6 0-3.2-.9-4.8-2.5zm7.1-7c-1.1-1.1-2.1-1.7-3.1-1.8s-1.8.2-2.7 1c-1.6 1.6-1.4 3.6.8 5.7 2.2 2.2 4.1 2.5 5.7.8.8-.8 1.2-1.7 1-2.7 0-.9-.7-2-1.7-3zm-16 6.2l2-2 9.7 9.7-5.6 5.6-1.7-1.7 3.5-3.5-2.5-2.5-3.3 3.3-1.7-1.7 3.3-3.3-3.7-3.9zm-7.5 7.5l2-2 9.7 9.7-5.6 5.6-1.7-1.7 3.5-3.5-2.5-2.5-3.3 3.3-1.7-1.7 3.3-3.3-3.7-3.9z"/></g><g class="st0"><path class="st18" d="M37.5 61.5l-4.2-11.3-4.7 4.7-1.7-1.7 6.8-6.8 1.3 1.3 4.6 11.7-2.1 2.1zm4-16.1c.9-.9 1.9-1.4 2.9-1.4s2 .4 2.9 1.3c1.1 1.1 1.5 2.2 1.5 3.4-.1 1.2-.7 2.4-1.9 3.6-1 1-2.1 1.7-3.1 2l-1.7-1.7c.5-.2 1.1-.4 1.6-.7s1.1-.7 1.5-1.1c1.2-1.2 1.3-2.3.3-3.3s-2.1-.8-3.3.5c-.2.2-.5.5-.7.8s-.4.6-.5.8l-1.2.4-4.5-5.2 5.1-5.1 1.7 1.7-3.4 3.4 1.7 2 .2-.3c.2-.4.5-.7.9-1.1zm7.9-9.1c1 1 1.5 1.9 1.7 2.8.1.9-.2 1.7-.9 2.4s-1.5 1-2.4.9c-.9-.1-1.8-.7-2.8-1.6-2-2-2.2-3.7-.7-5.2.7-.7 1.5-1 2.4-.9.8.2 1.7.7 2.7 1.6zm-2.9 2.9c.5.5 1 .9 1.4 1.1s.7.2.9-.1c.4-.4.1-1.2-1-2.2-1.1-1.1-1.8-1.4-2.2-1-.2.2-.2.5-.1.9s.5.8 1 1.3zM51 29.1l4.2 14.7-1.5 1.5-4.2-14.7 1.5-1.5zm8.7 4.4c1 1 1.5 1.9 1.6 2.8.1.9-.2 1.7-.9 2.4s-1.5 1-2.4.9c-.9-.1-1.8-.7-2.8-1.6-2-2-2.2-3.7-.7-5.2.7-.7 1.5-1 2.4-.9s1.9.6 2.8 1.6zm-2.8 2.9c.5.5 1 .9 1.4 1.1.4.2.7.2.9-.1.4-.4.1-1.2-1-2.2-1.1-1.1-1.8-1.4-2.2-1-.2.2-.2.5-.1.9s.4.7 1 1.3zm0 27.9c1.6 1.6 2.4 3.1 2.4 4.8.1 1.6-.6 3.1-2.1 4.6s-3 2.1-4.6 2.1-3.2-.9-4.8-2.5c-1.6-1.6-2.4-3.2-2.4-4.8-.1-1.6.6-3.1 2.1-4.6s3-2.1 4.6-2.1c1.6.1 3.2.9 4.8 2.5zM50 71.2c1.1 1.1 2 1.6 3 1.8.9.1 1.8-.2 2.6-1 1.6-1.6 1.3-3.5-.8-5.6-2.1-2.1-4-2.4-5.6-.8-.8.8-1.1 1.7-1 2.6s.7 1.9 1.8 3zm15.5-6.1l-2 2-9.4-9.4 5.4-5.4 1.6 1.6-3.4 3.4 2.4 2.4 3.2-3.2 1.6 1.6-3.2 3.2 3.8 3.8zm7.3-7.2l-2 2-9.4-9.4 5.4-5.4 1.6 1.6-3.4 3.4 2.4 2.4 3.2-3.2 1.6 1.6-3.2 3.2 3.8 3.8z"/></g><path class="st19" d="M47.5 152.5l-9.3-6.9 13.4-17 12.1 7.7 7.7 12.1-17 13.4z"/><path class="st20" d="M47.5 152.5l16.2-16.2 7.7 12.1-17 13.4z"/><path class="st20" d="M43.3 156.7l3.4-4.8L51 149l8.2 11.6-4.8 3.8z"/><path class="st19" d="M35.6 145.6l10.8 8L51 149l-11.6-8.2z"/><path fill-rule="evenodd" clip-rule="evenodd" fill="#82d4f3" d="M46.4 153.6l8 10.8-11.1-7.7-7.7-11.1z"/><path fill-rule="evenodd" clip-rule="evenodd" fill="#3579a0" d="M41.8 141l-.8 1 10 7 .9-.9z"/><path fill-rule="evenodd" clip-rule="evenodd" fill="#3e85b0" d="M51 149l7 10 .9-.7-7-10.2z"/><path class="st16" d="M54.7 148.6c.2.4.7.5 1.2.4.5-.1 1.1-.4 1.7-.8.6-.5 1-1 1.1-1.5.2-.5.1-1-.1-1.3-.3-.3-.7-.4-1.3-.4-.5.1-1.1.3-1.6.7-.5.4-.9 1-1 1.5-.2.5-.2 1 0 1.4zm7.5-5.1c.2.2.6.2 1 .2.4-.1.9-.3 1.2-.6.4-.3.6-.7.7-1 .1-.3 0-.6-.3-.8-.3-.2-.6-.2-1-.1s-.8.3-1.2.6c-.4.3-.6.7-.7 1 0 .2.1.5.3.7zm-3.3.4c.3.3.9.2 1.3-.2.5-.4.6-.9.3-1.2-.3-.3-.9-.2-1.3.2s-.6.9-.3 1.2zm-.4 11.1c-.3-.3-.3-.8-.1-1.2.2-.5.6-1 1.2-1.4.6-.4 1.2-.7 1.8-.7.5 0 1 .1 1.2.5.2.4.2.8.1 1.3-.2.5-.6 1-1.1 1.3-.5.4-1.1.6-1.7.7-.6 0-1.1-.1-1.4-.5zm6.8-6c-.1-.3-.1-.6.1-1s.5-.8.9-1.1c.4-.3.8-.5 1.2-.5.3 0 .6.1.7.4.1.3.1.7-.1 1-.2.4-.5.7-.9 1-.4.3-.8.4-1.1.4-.4.2-.7.1-.8-.2zm-1.3 3.1c-.2-.3 0-.9.5-1.2.5-.4 1-.4 1.2 0 .2.3 0 .9-.5 1.2-.4.3-1 .3-1.2 0zm-11.1-19.8c.3.3.4.7.3 1.2-.1.5-.5 1.1-1 1.6s-1.1.8-1.7.9c-.5.1-1 0-1.3-.3-.3-.3-.3-.8-.2-1.3.1-.5.4-1 .9-1.5.5-.4 1.1-.7 1.6-.9.5 0 1 0 1.4.3zm-6 6.8c.2.3.2.6 0 1-.1.4-.4.8-.8 1.2-.4.3-.8.5-1.1.6-.3 0-.6-.1-.8-.3-.1-.3-.1-.7 0-1 .1-.4.4-.8.7-1.1.3-.3.7-.5 1.1-.6.4-.1.7 0 .9.2zm.8-3.2c.2.3.1.9-.4 1.3-.4.4-1 .5-1.2.2-.2-.3-.1-.9.4-1.3.4-.4 1-.5 1.2-.2zm11.1.9c-.3-.3-.7-.4-1.2-.3-.5.1-1.1.5-1.6 1s-.8 1.1-.9 1.7c-.1.5 0 1 .3 1.3.3.3.8.3 1.3.2.5-.1 1-.4 1.5-.9.4-.5.7-1.1.9-1.6 0-.5 0-1.1-.3-1.4zm-6.8 6c-.3-.2-.6-.2-1 0-.4.1-.8.4-1.2.8-.3.4-.5.8-.6 1.1 0 .3.1.6.3.8.3.1.7.1 1 0 .4-.1.8-.4 1.1-.7.3-.3.5-.7.6-1.1.2-.4.1-.7-.2-.9zm3.3-.8c-.3-.2-.9-.1-1.3.4-.4.4-.5 1-.2 1.2.3.2.9.1 1.3-.4s.5-1 .2-1.2z"/><path class="st24" d="M49.2 157.5l-3.9-2.8-2.8-3.9-3.1-2.4 3.1 4.9-3.3-2.5 1.6 2.4 3.4 2.6 2.6 3.4 2.4 1.6-2.5-3.4 4.8 3.2zm3.5 2.1l3.6-3-.5-.7-1.8-2.6-3.6 3.1-1.2 1 2.3 3.1 1.2-.9zm4-4.4l12.4-10.4-2.2-3.5L54.5 152l2.2 3.2z"/><path class="st9" d="M48.1 145.4l10.6-12.3-3.5-2.2-10.3 12.3 3.2 2.2zm-4.6 4.2l3.1-3.6-2.6-1.8-.7-.5-3 3.6-1 1.2 3.1 2.3 1.1-1.2z"/><path class="st24" d="M34.6 151.2s3.3 4.1 8.1 4c.7 0 1.5.1 2.2-.1l-.5 1.4c-3 1.3-6.7.9-9.5-1.5-.6-1.3-.5-2.1-.3-3.8z"/><path class="st9" d="M34.6 151.2s4.9-2.9 10.3 3.9c-.7.2-1.4.3-2 .3-4.9.3-8.3-4.2-8.3-4.2z"/><path class="st25" d="M37 153.5c1.4-.6 4.1.6 5.3 2-2.2-.1-4-1.1-5.3-2z"/><path class="st8" d="M35.1 151c.9.9 1.7 1.7 2.4 2.3-.2 0-.4.1-.5.1-1.5-1.1-2.4-2.2-2.4-2.2s.2-.1.5-.2zm7.2 4c.8 0 1.6-.1 2.3-.3l.3.3c-.7.2-1.4.3-2 .3h-.6l-.3-.3-.2-.2c.2.2.3.2.5.2z"/><path class="st24" d="M41.7 144.3c-1.4 5.7 2.9 10.5 2.9 10.5-.4.1-1.5.2-1.7.2-2.6-1.6-4.6-5.8-4.4-9.2 1.1-.6 2-1 3.2-1.5zm7.1 21.1s-4.1-3.3-4-8.1c0-.7-.1-1.5.1-2.2l-1.4.5c-1.3 3-.9 6.7 1.5 9.5 1.3.6 2.1.5 3.8.3z"/><path d="M48.8 165.4s2.9-4.9-3.9-10.3c-.2.7-.3 1.4-.3 2-.3 4.8 4.2 8.3 4.2 8.3z" fill-rule="evenodd" clip-rule="evenodd" fill="#dd432c"/><path class="st25" d="M46.5 163c.6-1.4-.6-4.1-2-5.3.1 2.1 1 4 2 5.3z"/><path class="st8" d="M49 164.9c-.9-.9-1.7-1.7-2.3-2.4 0 .2-.1.4-.1.5 1.1 1.5 2.2 2.4 2.2 2.4s.1-.2.2-.5zm-4.1-7.2c0-.8.1-1.6.3-2.3l-.3-.3c-.2.7-.3 1.4-.3 2v.6l.3.3.2.2c-.1-.2-.2-.3-.2-.5z"/><path class="st24" d="M55.7 158.3c-5.7 1.4-10.5-2.9-10.5-2.9-.1.4-.2 1.5-.2 1.7 1.6 2.6 5.8 4.6 9.2 4.4.6-1.1 1-2 1.5-3.2z"/><path class="st8" d="M47.3 146.4l.8-1-3.2-2.2-.8.9 2.5 1.9z"/><path class="st9" d="M56.7 155.2l-2.2-3.2-.9.7.4.7 1.8 2.5z"/><path d="M45.5 95.9h1.7v6.4l.6-.6.9-.8.8 1-2.6 2.1h-1.4v-8.1zm-10.7 2.3c0-.7.3-1.3.8-1.8.5-.4 1.3-.6 2.2-.6.9 0 1.7.2 2.3.5v1.6c-.6-.2-1-.4-1.4-.5-.4-.1-.7-.2-1.1-.2-.4 0-.7.1-.9.2s-.3.4-.3.7c0 .2 0 .3.1.4l.4.4c.2.2.5.3 1.1.6.5.2.9.5 1.1.7.3.2.5.5.6.8s.2.6.2 1c0 .7-.2 1.3-.7 1.7s-1.2.6-2 .6c-.4 0-.8-.1-1.2-.2-.4-.1-.8-.2-1.2-.4l.6-1.4c.4.2.8.3 1.1.4s.6.1.8.1c.3 0 .6-.1.8-.2s.3-.4.3-.6c0-.2 0-.3-.1-.4l-.3-.3c-.2-.1-.5-.3-1.1-.6-.8-.4-1.3-.7-1.6-1.1-.4-.4-.5-.9-.5-1.4zm-7.2 3.3c0-.9.3-1.6.8-2s1.3-.7 2.4-.7h.7v-2.9h1.7v8.2h-2.6c-1 0-1.8-.2-2.3-.6-.4-.5-.7-1.1-.7-2zm4-1.3H31c-.5 0-.9.1-1.2.3-.3.2-.4.5-.4.9s.1.7.3.9c.2.2.6.3 1 .3h.8l.1-2.4zm-5.5-4.3v8.2h-1.7v-8.2h1.7zm-11.1 0h2.2l3.6 6.2h.1c-.1-1.1-.1-1.9-.1-2.3v-3.9h1.6v8.2h-2.2L16.6 98c.1 1.1.1 1.8.1 2.3v3.9H15v-8.3zm139.5 8.2h-1.7v-6.4l-.6.6-.9.8-.8-1 2.6-2.1h1.4v8.1zm10.7-2.3c0 .7-.3 1.3-.8 1.8-.5.4-1.3.6-2.2.6-.9 0-1.7-.2-2.3-.5v-1.6c.6.2 1 .4 1.4.5.4.1.7.2 1.1.2.4 0 .7-.1.9-.2s.3-.4.3-.7c0-.2 0-.3-.1-.4l-.4-.4c-.2-.1-.5-.3-1.1-.6-.5-.2-.9-.5-1.1-.7-.3-.2-.5-.5-.6-.8-.1-.3-.2-.6-.2-1 0-.7.2-1.3.7-1.7s1.2-.6 2-.6c.4 0 .8.1 1.2.2.4.1.8.2 1.2.4l-.6 1.4c-.4-.2-.8-.3-1.1-.4s-.6-.1-.8-.1c-.3 0-.6.1-.8.2-.2.2-.3.4-.3.6 0 .2 0 .3.1.4l.3.3c.2.1.5.3 1.1.6.8.4 1.3.7 1.6 1.1.4.4.5.9.5 1.4zm7.2-3.3c0 .9-.3 1.6-.8 2s-1.3.7-2.4.7h-.7v2.9h-1.7v-8.2h2.6c1 0 1.8.2 2.3.6s.7 1.1.7 2zm-4 1.3h.6c.5 0 .9-.1 1.2-.3.3-.2.4-.5.4-.9s-.1-.7-.3-.9c-.2-.2-.6-.3-1-.3h-.8v2.4zm5.5 4.3v-8.2h1.7v8.2h-1.7zm11.1 0h-2.2l-3.6-6.2h-.1c.1 1.1.1 1.9.1 2.3v3.9h-1.6v-8.2h2.2l3.6 6.1c-.1-1.1-.1-1.8-.1-2.3v-3.9h1.6v8.3z" fill="#545454"/><path class="st28" d="M49 32.5c1.5 5.8 3.2 11.5 5.9 16.6-2.4 1.3-4.9 2.6-7.3 4-3-4.9-6.7-9.2-10-14.3 3.5-2.6 7.3-4.6 11.4-6.3z"/><path class="st29" d="M55.6 49.3l-1.9 1c-2 1.1-3.9 2.1-5.9 3.2l-.4.2-.3-.4c-1.7-2.8-3.6-5.3-5.6-8-1.5-2-3-4-4.4-6.2l-.3-.4.4-.3c3.5-2.5 7.3-4.6 11.6-6.4l.6-.2.2.6c1.6 5.9 3.2 11.5 5.9 16.5l.1.4zm-7.9 3.1l5.4-3 1-.5c-2.5-4.8-4.1-10.1-5.6-15.7-3.8 1.6-7.2 3.5-10.4 5.7 1.3 2 2.8 3.9 4.1 5.7 2.1 2.7 3.9 5.1 5.5 7.8z"/><path class="st29" d="M45.5 40.4c2.2-1.2 4.5-.6 5.1 1.2.6 1.8-.2 3.9-1.9 4.9-1.7.9-4 .5-5.1-1-1.1-1.5-.3-3.9 1.9-5.1zm2 12.7c.7-.4 1.3-.7 2-1.1-.6-1.1-2-1.4-3.1-.8.4.6.8 1.2 1.1 1.9z"/><path class="st28" d="M45.8 43.3c-.3.2-.3.5 0 .8.2.4.5.5.7.4.1-.1.2-.2.2-.4s-.1-.5-.2-.9-.1-.8 0-1.1c.1-.3.4-.6.7-.7.4-.2.8-.2 1.1 0 .4.2.6.5.8.9.4 1 .3 1.7-.4 2.3-.2-.2-.3-.5-.5-.7.4-.3.5-.7.2-1.2-.2-.5-.5-.6-.9-.4-.2.1-.3.2-.3.4s0 .5.1.9c.1.5.1.8.1 1.1-.1.3-.3.5-.5.7-.3.2-.6.2-.9.1-.3-.1-.6-.4-.9-.8-.5-.8-.4-1.5.2-2 .2.1.3.4.5.6z"/><path class="st28" d="M44.9 44.1c.1.2.3.5.4.7-.3.1-.5.3-.8.4-.1-.2-.3-.5-.4-.7.3-.1.6-.2.8-.4zm4.7-2.6c.1.3.2.5.3.8-.3.1-.5.3-.8.4-.1-.3-.2-.5-.3-.8.2-.1.5-.2.8-.4z"/><path class="st29" d="M54.8 49.1c-.3-.7-.7-1.3-1-2-1.1.6-1.5 2-1 3 .7-.2 1.3-.6 2-1zm-6-16.5c-1.1.5-2.1.9-3.2 1.4.5 1.2 2.1 1.5 3.8.8-.2-.8-.4-1.5-.6-2.2zm-11.3 6.2c.4.6.9 1.3 1.3 1.9 1.5-1 2.2-2.7 1.6-3.9-1 .7-1.9 1.3-2.9 2zm11.8 8.9c.4-.2.9-.1 1.1.3.2.4.1.8-.3 1-.4.2-.8.1-1.1-.3-.2-.3 0-.8.3-1zm-5.2-10.1c.5-.3 1.1-.2 1.3.2.2.4-.1.9-.6 1.2-.5.3-1.1.2-1.3-.2-.2-.4.1-.9.6-1.2z"/><path class="st28" d="M45.6 31.8c2.3 5.5 4.8 11 8.2 15.6-2.2 1.7-4.5 3.3-6.7 5-3.6-4.4-7.9-8.2-12-12.7 3.2-3.1 6.7-5.6 10.5-7.9z"/><path class="st29" d="M54.6 47.5l-1.5 1.1c-1.9 1.4-3.7 2.8-5.6 4.2l-.5.3-.3-.4c-2.1-2.5-4.3-4.8-6.7-7.2-1.7-1.7-3.5-3.6-5.3-5.5l-.3-.4.4-.4c3.1-3 6.5-5.6 10.5-8l.5-.3.2.6c2.4 5.6 4.8 11 8.2 15.5l.4.5zm-7.4 4.2c1.8-1.3 3.5-2.6 5.2-3.9l.6-.5c-3.2-4.4-5.5-9.5-7.7-14.7-3.6 2.2-6.7 4.5-9.5 7.2 1.6 1.8 3.3 3.5 4.9 5.1 2.4 2.2 4.5 4.4 6.5 6.8z"/><path class="st29" d="M43.3 40.1c2-1.5 4.3-1.3 5.2.4.9 1.7.4 3.9-1.2 5.1-1.6 1.2-3.9 1.1-5.2-.2-1.3-1.3-.8-3.8 1.2-5.3zm3.8 12.3c.6-.4 1.2-.9 1.8-1.3-.7-1-2.2-1.1-3.2-.3.5.5 1 1 1.4 1.6z"/><path class="st28" d="M44 43c-.2.2-.2.5.1.8.3.4.5.4.8.3.1-.1.1-.2.1-.4s-.1-.5-.3-.9c-.2-.4-.2-.8-.2-1.1.1-.3.3-.6.6-.8.4-.3.7-.3 1.1-.2.4.1.7.4.9.8.5.9.5 1.7-.1 2.3-.2-.2-.4-.4-.6-.7.3-.3.4-.7.1-1.2-.3-.4-.6-.5-.9-.3-.1.1-.2.2-.2.4s.1.5.3.9c.2.4.3.8.2 1.1 0 .3-.2.5-.4.7-.4.3-.7.3-1 .3-.4-.1-.7-.3-1-.7-.6-.8-.7-1.4 0-2 .1.3.3.5.5.7z"/><path class="st28" d="M43.2 43.9c.2.2.3.4.5.6-.2.2-.5.4-.7.6-.2-.2-.4-.4-.5-.6.3-.2.5-.4.7-.6zm4.3-3.2c.1.2.3.5.4.7-.2.2-.5.3-.7.5-.1-.2-.3-.5-.4-.7.2-.2.4-.3.7-.5z"/><path class="st29" d="M53.7 47.5c-.4-.6-.9-1.2-1.3-1.8-1 .8-1.2 2.2-.5 3.1.6-.4 1.2-.9 1.8-1.3zm-8.3-15.6c-1 .6-2 1.2-2.9 1.9.6 1.1 2.3 1.2 3.9.2-.4-.7-.7-1.4-1-2.1zm-10.2 7.8c.5.6 1 1.1 1.6 1.7 1.3-1.3 1.8-3 1-4-.9.7-1.8 1.5-2.6 2.3zm12.9 7.1c.4-.3.8-.2 1.1.1.2.3.2.8-.2 1.1-.3.3-.8.2-1.1-.1-.2-.3-.1-.8.2-1.1zm-6.6-9.2c.5-.4 1.1-.4 1.3 0 .2.4 0 .9-.4 1.3-.5.3-1 .4-1.3 0-.2-.4-.1-1 .4-1.3z"/><path class="st30" d="M48.8 54l-7.7-1s-1.3-1.4 1-3.5c2.2-2.1 5.5-3.5 7.6-5.4 3-2.8 4.8-6.2 4.8-6.2l1.7 8.7-7.4 7.4zm19.6-3.7c-3.7-1.6-8.2-2.7-12.2-3.7L48.8 54c1 4 2.3 8.4 3.7 12.2 3 8.2 6.3 8.5 10.7 6.9 3.2-1.2 10.9-8.9 12.1-12.1 1.6-4.4-.5-8-6.9-10.7z"/><path class="st31" d="M61.2 56.3c-.6-.5-1.3-.3-2.3.7-.9.9-1.2 1.7-.7 2.2.3.3.7.4 1.1.2.4-.2 1.2-.6 2.3-1.4 1.1-.7 2.1-1.1 2.9-1.1.8 0 1.6.3 2.3 1 .8.8 1 1.7.7 2.8-.3 1.1-.9 2.1-1.8 3-2.2 2.1-4.2 2.5-6.2 1.2l1.6-1.9c1 .7 2.1.5 3.2-.6s1.2-2 .5-2.7c-.3-.3-.7-.4-1.1-.3-.4.1-1.2.5-2.3 1.3-1.1.8-2.1 1.2-2.9 1.2-.8 0-1.5-.2-2.1-.8-.6-.6-.9-1.4-.7-2.4.1-1 .7-2 1.8-3 2.1-2.1 3.8-2.5 5.3-1.2l-1.6 1.8z"/><path transform="rotate(-44.781 57.088 54.951)" class="st31" d="M55.9 53.9h2.4v2.2h-2.4z"/><path transform="rotate(-44.781 66.27 64.193)" class="st31" d="M65.1 63.1h2.4v2.2h-2.4z"/><path class="st32" d="M57 46.1c.1.1.1.4-.1.6l-8.2 8.2c-.2.2-.5.2-.6.1l-.2-.2c-.1-.1-.1-.4.1-.6l8.2-8.2c.2-.2.5-.2.6-.1l.2.2z"/><path class="st33" d="M70.8 64.5c2.4-.4 4-3.7 4.2-5.2.4-2.1-.8-4.5-2.3-5.6-1.4-1.1-2.5-1.8-4.2-2.5-.6-.2 1.9.7 3.2 3.9 1 2.4-.7 5-1.9 6.6-.7 1.1-1.3 3.2 1 2.8zm-17.6-16s1.6-3.5 1.6-6.1c0-2.9.8 3.7.8 3.7l-2.4 2.4z"/><path class="st34" d="M42.4 52.4h.8c.5 0 1.2.1 1.9.1.7.1 1.3.2 1.8.4.2.1.5.1.6.2.1 0 .2.1.2.1h-.8c-.6 0-1.2 0-1.9-.1s-1.3-.2-1.8-.4c-.2-.1-.5-.1-.6-.2-.1-.1-.2-.1-.2-.1zm7.5 2.4s.1.2.2.5.3.7.5 1.2c.4 1 .9 2.4 1.4 3.8.5 1.4.9 2.8 1.1 3.9.1.5.2 1 .3 1.3.1.3.1.5.1.5s-.1-.2-.2-.5-.3-.7-.5-1.2c-.4-1-.9-2.4-1.4-3.8-.5-1.4-.9-2.8-1.1-3.9-.1-.5-.2-1-.3-1.3 0-.4-.1-.5-.1-.5z"/><path class="st35" d="M63.6 69.1c1.3 2.4.4 5.5-2 6.8-2.4 1.3-5.5.4-6.8-2-1.3-2.4-.4-5.5 2-6.8 2.4-1.3 5.4-.4 6.8 2z"/><path class="st36" d="M62.8 69.5c1.1 2 .3 4.5-1.7 5.6-2 1.1-4.5.3-5.6-1.7-1.1-2-.3-4.5 1.7-5.6 2-1 4.5-.3 5.6 1.7z"/><path class="st37" d="M59.4 70.1c-.2-.3-.5-.3-1 0s-.7.5-.5.8c.1.2.2.2.4.2s.6-.1 1.1-.3c.5-.2 1-.2 1.3-.1.3.1.6.3.8.7.2.4.2.8 0 1.2-.2.4-.6.8-1.1 1-1.1.6-2 .5-2.7-.3l.9-.6c.3.4.8.5 1.4.1.6-.3.7-.6.5-1-.1-.2-.2-.3-.4-.3s-.6.1-1.1.2c-.6.2-1 .2-1.3.1-.3-.1-.6-.3-.7-.6-.2-.3-.2-.7 0-1.1.2-.4.5-.7 1.1-1 1.1-.6 1.9-.5 2.3.2l-1 .8z"/><path transform="rotate(-28.297 57.892 69.04)" class="st37" d="M57.4 68.6h1v.9h-1z"/><path transform="rotate(-28.285 60.527 73.914)" class="st37" d="M60 73.5h1v.9h-1z"/><path class="st38" d="M55.7 73.5c-.3-.3-.6-.8-.6-1 0-.2.3-.7.6-1-.3.3-.8.6-1 .6-.2 0-.7-.3-1-.6.3.3.6.8.6 1 0 .3-.3.7-.6 1 .3-.3.8-.6 1-.6.2 0 .7.3 1 .6zm.8-.5c-.1-.1-.2-.3-.2-.4 0-.1.1-.3.2-.4-.1.1-.3.2-.4.2-.1 0-.3-.1-.4-.2.1.1.2.3.2.4 0 .1-.1.3-.2.3.1-.1.3-.2.4-.2.1.1.3.2.4.3zm-.6 2.1c-.1-.1-.3-.4-.3-.5 0-.1.1-.4.3-.5-.1.1-.4.3-.5.3-.1 0-.4-.1-.5-.3.1.1.3.4.3.5 0 .1-.2.4-.3.5.1-.1.4-.3.5-.3.1 0 .4.1.5.3z"/><path class="st28" d="M151 167.5c-1.5-5.8-3.2-11.5-5.9-16.6 2.4-1.3 4.9-2.6 7.3-4 3 4.9 6.7 9.2 10 14.3-3.5 2.6-7.3 4.6-11.4 6.3z"/><path class="st29" d="M144.4 150.7l1.9-1c2-1.1 3.9-2.1 5.9-3.2l.4-.2.3.4c1.7 2.8 3.6 5.3 5.6 8 1.5 2 3 4 4.4 6.2l.3.4-.4.3c-3.5 2.5-7.3 4.6-11.6 6.4l-.6.2-.2-.6c-1.6-5.9-3.2-11.5-5.9-16.5l-.1-.4zm7.9-3.1l-5.4 3-1 .5c2.5 4.8 4.1 10.1 5.6 15.7 3.8-1.6 7.2-3.5 10.4-5.7-1.3-2-2.8-3.9-4.1-5.7-2.1-2.7-3.9-5.1-5.5-7.8z"/><path class="st29" d="M154.5 159.6c-2.2 1.2-4.5.6-5.1-1.2-.6-1.8.2-3.9 1.9-4.9 1.7-.9 4-.5 5.1 1 1.1 1.5.3 3.9-1.9 5.1zm-2-12.7c-.7.4-1.3.7-2 1.1.6 1.1 2 1.4 3.1.8-.4-.6-.8-1.2-1.1-1.9z"/><path class="st28" d="M154.2 156.7c.3-.2.3-.5 0-.8-.2-.4-.5-.5-.7-.4-.1.1-.2.2-.2.4s.1.5.2.9.1.8 0 1.1c-.1.3-.4.6-.7.7-.4.2-.8.2-1.1 0-.4-.2-.6-.5-.8-.9-.4-1-.3-1.7.4-2.3.2.2.3.5.5.7-.4.3-.5.7-.2 1.2.2.5.5.6.9.4.2-.1.3-.2.3-.4s0-.5-.1-.9c-.1-.5-.1-.8-.1-1.1.1-.3.3-.5.5-.7.3-.2.6-.2.9-.1.3.1.6.4.9.8.5.8.4 1.5-.2 2-.2-.1-.3-.4-.5-.6z"/><path class="st28" d="M155.1 155.9c-.1-.2-.3-.5-.4-.7.3-.1.5-.3.8-.4.1.2.3.5.4.7-.3.1-.6.2-.8.4zm-4.7 2.6c-.1-.3-.2-.5-.3-.8.3-.1.5-.3.8-.4.1.3.2.5.3.8-.2.1-.5.2-.8.4z"/><path class="st29" d="M145.2 150.8c.3.7.7 1.3 1 2 1.1-.6 1.5-2 1-3-.7.3-1.3.7-2 1zm6 16.6c1.1-.5 2.1-.9 3.2-1.4-.5-1.2-2.1-1.5-3.8-.8.2.8.4 1.5.6 2.2zm11.3-6.2c-.4-.6-.9-1.3-1.3-1.9-1.5 1-2.2 2.7-1.6 3.9 1-.7 1.9-1.3 2.9-2zm-11.8-8.9c-.4.2-.9.1-1.1-.3-.2-.4-.1-.8.3-1 .4-.2.8-.1 1.1.3.2.3 0 .8-.3 1zm5.2 10.1c-.5.3-1.1.2-1.3-.2-.2-.4.1-.9.6-1.2.5-.3 1.1-.2 1.3.2.2.4-.1.9-.6 1.2z"/><path class="st28" d="M154.4 168.2c-2.3-5.5-4.8-11-8.2-15.6 2.2-1.7 4.5-3.3 6.7-5 3.6 4.4 7.9 8.2 12 12.7-3.2 3.1-6.7 5.6-10.5 7.9z"/><path class="st29" d="M145.4 152.5l1.5-1.1c1.9-1.4 3.7-2.8 5.6-4.2l.4-.3.3.4c2.1 2.5 4.3 4.8 6.7 7.2 1.7 1.7 3.5 3.6 5.3 5.5l.3.4-.4.4c-3.1 3-6.5 5.6-10.5 8l-.5.3-.2-.6c-2.4-5.6-4.8-11-8.2-15.5l-.3-.5zm7.4-4.2c-1.8 1.3-3.5 2.6-5.2 3.9l-.6.5c3.2 4.4 5.5 9.5 7.7 14.7 3.6-2.2 6.7-4.5 9.5-7.2-1.6-1.8-3.3-3.5-4.9-5.1-2.4-2.2-4.5-4.4-6.5-6.8z"/><path class="st29" d="M156.7 159.9c-2 1.5-4.3 1.3-5.2-.4-.9-1.7-.4-3.9 1.2-5.1 1.6-1.2 3.9-1.1 5.2.2 1.3 1.3.8 3.8-1.2 5.3zm-3.8-12.3c-.6.4-1.2.9-1.8 1.3.7 1 2.2 1.1 3.2.3-.5-.5-1-1-1.4-1.6z"/><path class="st28" d="M156 157c.2-.2.2-.5-.1-.8-.3-.4-.5-.4-.8-.3-.1.1-.2.2-.2.4s.1.5.3.9c.2.4.2.8.2 1.1-.1.3-.3.6-.6.8-.4.3-.7.3-1.1.2-.4-.1-.7-.4-.9-.8-.5-.9-.5-1.7.1-2.3.2.2.4.4.6.7-.3.3-.4.7-.1 1.2.3.4.6.5.9.3.1-.1.2-.2.2-.4s-.1-.5-.3-.9c-.2-.4-.3-.8-.2-1.1 0-.3.2-.5.4-.7.3-.2.6-.3.9-.2.4.1.7.3 1 .7.6.8.7 1.4 0 2 .1-.4-.1-.6-.3-.8zm.8-.9c-.2-.2-.3-.4-.5-.6.2-.2.5-.4.7-.6.2.2.4.4.5.6-.3.2-.5.4-.7.6z"/><path class="st28" d="M152.5 159.3c-.1-.2-.3-.5-.4-.7.2-.2.5-.3.7-.5.1.2.3.5.4.7-.2.1-.4.3-.7.5z"/><path class="st29" d="M146.3 152.5c.4.6.9 1.2 1.3 1.8 1-.8 1.2-2.2.5-3.1-.6.4-1.2.9-1.8 1.3zm8.3 15.6c1-.6 2-1.2 2.9-1.9-.6-1.1-2.3-1.2-3.9-.2.4.7.7 1.4 1 2.1zm10.2-7.8c-.5-.6-1-1.1-1.6-1.7-1.3 1.3-1.8 3-1 4 .9-.7 1.8-1.5 2.6-2.3zm-12.9-7.1c-.4.3-.8.2-1.1-.1-.2-.3-.2-.8.2-1.1.3-.3.8-.2 1.1.1.2.3.1.8-.2 1.1zm6.6 9.2c-.5.4-1.1.4-1.3 0-.2-.4 0-.9.4-1.3.5-.3 1-.4 1.3 0 .2.4.1 1-.4 1.3z"/><path class="st30" d="M151.2 146l7.7 1s1.3 1.4-1 3.5c-2.2 2.1-5.5 3.5-7.6 5.4-3 2.8-4.8 6.2-4.8 6.2l-1.7-8.7 7.4-7.4zm-19.6 3.7c3.7 1.6 8.2 2.7 12.2 3.7l7.4-7.4c-1-4-2.3-8.4-3.7-12.2-3-8.2-6.3-8.5-10.7-6.9-3.2 1.2-10.9 8.9-12.1 12.1-1.6 4.4.5 8 6.9 10.7z"/><path class="st31" d="M138.8 143.7c.6.5 1.3.3 2.3-.7.9-.9 1.2-1.7.7-2.2-.3-.3-.7-.4-1.1-.2-.4.2-1.2.6-2.3 1.4-1.1.7-2.1 1.1-2.9 1.1-.8 0-1.6-.3-2.3-1-.8-.8-1-1.7-.7-2.8.3-1.1.9-2.1 1.8-3 2.2-2.1 4.2-2.5 6.2-1.2l-1.6 1.9c-1-.7-2.1-.5-3.2.6s-1.2 2-.5 2.7c.3.3.7.4 1.1.3.4-.1 1.2-.5 2.3-1.3 1.1-.8 2.1-1.2 2.9-1.2.8 0 1.5.2 2.1.8.6.6.9 1.4.7 2.4-.1 1-.7 2-1.8 3-2.1 2.1-3.8 2.5-5.3 1.2l1.6-1.8z"/><path transform="rotate(-44.781 142.91 145.042)" class="st31" d="M141.7 144h2.4v2.2h-2.4z"/><path transform="rotate(-44.781 133.743 135.806)" class="st31" d="M132.5 134.7h2.4v2.2h-2.4z"/><path class="st32" d="M143 153.9c-.1-.1-.1-.4.1-.6l8.2-8.2c.2-.2.5-.2.6-.1l.2.2c.1.1.1.4-.1.6l-8.2 8.2c-.2.2-.5.2-.6.1l-.2-.2z"/><path class="st33" d="M129.2 135.5c-2.4.4-4 3.7-4.2 5.2-.4 2.1.8 4.5 2.3 5.6 1.4 1.1 2.5 1.8 4.2 2.5.6.2-1.9-.7-3.2-3.9-1-2.4.7-5 1.9-6.6.7-1.1 1.3-3.2-1-2.8zm17.6 16s-1.6 3.5-1.6 6.1c0 2.9-.8-3.7-.8-3.7l2.4-2.4z"/><path class="st34" d="M157.6 147.6h-.8c-.5 0-1.2-.1-1.9-.1-.7-.1-1.3-.2-1.8-.4-.2-.1-.5-.1-.6-.2-.1 0-.2-.1-.2-.1h.8c.6 0 1.2 0 1.9.1s1.3.2 1.8.4c.2.1.5.1.6.2.1.1.2.1.2.1zm-7.5-2.4s-.1-.2-.2-.5-.3-.7-.5-1.2c-.4-1-.9-2.4-1.4-3.8-.5-1.4-.9-2.8-1.1-3.9-.1-.5-.2-1-.3-1.3-.1-.3-.1-.5-.1-.5s.1.2.2.5.3.7.5 1.2c.4 1 .9 2.4 1.4 3.8.5 1.4.9 2.8 1.1 3.9.1.5.2 1 .3 1.3 0 .3.1.5.1.5z"/><path class="st35" d="M136.4 130.9c-1.3-2.4-.4-5.5 2-6.8 2.4-1.3 5.5-.4 6.8 2 1.3 2.4.4 5.5-2 6.8-2.4 1.3-5.4.4-6.8-2z"/><path class="st36" d="M137.2 130.4c-1.1-2-.3-4.5 1.7-5.6 2-1.1 4.5-.3 5.6 1.7 1.1 2 .3 4.5-1.7 5.6-2 1.1-4.5.3-5.6-1.7z"/><path class="st37" d="M140.6 129.9c.2.3.5.3 1 0s.7-.5.5-.8c-.1-.2-.2-.2-.4-.2s-.6.1-1.1.3c-.5.2-1 .2-1.3.1-.3-.1-.6-.3-.8-.7-.2-.4-.2-.8 0-1.2.2-.4.6-.8 1.1-1 1.1-.6 2-.5 2.7.3l-.9.6c-.3-.4-.8-.5-1.4-.1-.6.3-.7.6-.5 1 .1.2.2.3.4.3s.6-.1 1.1-.2c.6-.2 1-.2 1.3-.1.3.1.6.3.7.6.2.3.2.7 0 1.1-.2.4-.5.7-1.1 1-1.1.6-1.9.5-2.3-.2l1-.8z"/><path transform="rotate(-28.297 142.086 130.955)" class="st37" d="M141.6 130.5h1v.9h-1z"/><path transform="rotate(-28.285 139.471 126.065)" class="st37" d="M139 125.6h1v.9h-1z"/><path class="st38" d="M144.3 126.5c.3.3.6.8.6 1 0 .2-.3.7-.6 1 .3-.3.8-.6 1-.6.2 0 .7.3 1 .6-.3-.3-.6-.8-.6-1 0-.3.3-.7.6-1-.3.3-.8.6-1 .6-.2 0-.7-.3-1-.6zm-.8.5c.1.1.2.3.2.4 0 .1-.1.3-.2.4.1-.1.3-.2.4-.2.1 0 .3.1.4.2-.1-.1-.2-.3-.2-.4 0-.1.1-.3.2-.3-.1.1-.3.2-.4.2-.1-.1-.3-.2-.4-.3zm.6-2.1c.1.1.3.4.3.5 0 .1-.1.4-.3.5.1-.1.4-.3.5-.3.1 0 .4.1.5.3-.1-.1-.3-.4-.3-.5 0-.1.2-.4.3-.5-.1.1-.4.3-.5.3-.1 0-.4-.1-.5-.3z"/><path class="st39" d="M90 185c.2.2.6.2.9 0l8.8-9.1c.2-.2.6-.3.9 0l9.1 8.8c.2.2.6.2.9 0l4.5-4.7c.2-.2.2-.6 0-.9l-9.1-8.8c-.2-.2-.3-.6 0-.9l8.8-9.1c.2-.2.2-.6 0-.9L110 155c-.2-.2-.6-.2-.9 0l-8.8 9.1c-.2.2-.6.3-.9 0l-9.1-8.8c-.2-.2-.6-.2-.9 0L85 160c-.2.2-.2.6 0 .9l9.1 8.8c.2.2.3.6 0 .9l-8.8 9.1c-.2.2-.2.6 0 .9L90 185z"/></g><path class="st39" d="M110.2 15.2c-.2-.2-.6-.2-.9 0l-8.9 8.9c-.2.2-.6.2-.9 0l-8.9-8.9c-.2-.2-.6-.2-.9 0l-4.6 4.6c-.2.2-.2.6 0 .9l8.9 8.9c.2.2.2.6 0 .9l-8.9 8.9c-.2.2-.2.6 0 .9l4.6 4.6c.2.2.6.2.9 0l8.9-8.9c.2-.2.6-.2.9 0l8.9 8.9c.2.2.6.2.9 0l4.6-4.6c.2-.2.2-.6 0-.9l-8.9-8.9c-.2-.2-.2-.6 0-.9l8.9-8.9c.2-.2.2-.6 0-.9l-4.6-4.6z" id="Слой_2"/></svg>